<svg width="60" height="58" viewBox="0 0 60 58" fill="none" xmlns="http://www.w3.org/2000/svg">
<path d="M52.2391 13.1945C49.7085 10.3517 46.6373 8.91028 43.1107 8.91028C39.9412 8.91028 37.2543 10.0389 35.124 12.2647C33.0073 14.4763 31.934 17.2232 31.934 20.4294C31.934 23.4593 33.0181 26.1593 35.1563 28.4544C37.0424 30.4791 39.4183 31.767 42.231 32.2919C41.7391 36.0211 38.4425 39.3965 32.4128 42.3376L31.3271 42.8673L35.7787 51.0857L36.7837 50.5764C49.5347 44.1129 56 34.9785 56 23.4266C56 19.4412 54.7347 15.9988 52.2391 13.1945ZM36.7363 47.9914L34.5059 43.8743C41.2132 40.3597 44.6113 36.1349 44.6113 31.3045V30.2702L43.5837 30.1539C40.816 29.8406 38.6136 28.7684 36.8508 26.8759C35.1007 24.9972 34.2499 22.8886 34.2499 20.4294C34.2499 17.8036 35.0832 15.6567 36.7971 13.8658C38.4971 12.0895 40.5625 11.226 43.1108 11.226C45.9879 11.226 48.4079 12.3735 50.5092 14.7341C52.6457 17.1346 53.6843 19.9779 53.6843 23.4265C53.6843 28.721 52.1934 33.5009 49.2533 37.6335C46.4478 41.5764 42.2401 45.0575 36.7363 47.9914Z" fill="#00a3e9"/>
<path d="M20.851 13.1894C18.2924 10.3501 15.2084 8.9104 11.6844 8.9104C8.51189 8.9104 5.83712 10.0411 3.73483 12.2711C1.65058 14.4817 0.593687 17.2266 0.593687 20.4296C0.593687 23.4594 1.67781 26.1593 3.81577 28.4545C5.69789 30.4749 8.0453 31.7616 10.8057 32.2889C10.3197 36.0209 7.05053 39.3979 1.06925 42.3396L0 42.8652L4.34088 51.0896L5.35577 50.5775C18.1647 44.1144 24.6594 34.9795 24.6594 23.4267C24.6593 19.4382 23.3778 15.9939 20.851 13.1894ZM5.32208 47.9876L3.15252 43.8768C9.81105 40.361 13.1849 36.1352 13.1849 31.3045V30.2725L12.1597 30.1542C9.44869 29.8414 7.27344 28.7691 5.51009 26.8759C3.75998 24.9973 2.90937 22.8886 2.90937 20.4296C2.90937 17.8003 3.73056 15.6512 5.41964 13.8597C7.09034 12.0876 9.1397 11.2261 11.6844 11.2261C14.5644 11.2261 17.0003 12.3753 19.1306 14.7395C21.2926 17.1388 22.3436 19.9805 22.3436 23.4267C22.3436 28.7203 20.8462 33.4995 17.8928 37.6316C15.0752 41.5735 10.8493 45.054 5.32208 47.9876Z" fill="#00a3e9"/>
<path d="M56.2391 11.1945C53.7085 8.35173 50.6373 6.91028 47.1107 6.91028C43.9412 6.91028 41.2543 8.03892 39.124 10.2647C37.0073 12.4763 35.934 15.2232 35.934 18.4294C35.934 21.4593 37.0181 24.1593 39.1563 26.4544C41.0424 28.4791 43.4183 29.767 46.231 30.2919C45.7391 34.0211 42.4425 37.3965 36.4128 40.3376L35.3271 40.8673L39.7787 49.0857L40.7837 48.5764C53.5347 42.1129 60 32.9785 60 21.4266C60 17.4412 58.7347 13.9988 56.2391 11.1945ZM40.7363 45.9914L38.5059 41.8743C45.2132 38.3597 48.6113 34.1349 48.6113 29.3045V28.2702L47.5837 28.1539C44.816 27.8406 42.6136 26.7684 40.8508 24.8759C39.1007 22.9972 38.2499 20.8886 38.2499 18.4294C38.2499 15.8036 39.0832 13.6567 40.7971 11.8658C42.4971 10.0895 44.5625 9.22597 47.1108 9.22597C49.9879 9.22597 52.4079 10.3735 54.5092 12.7341C56.6457 15.1346 57.6843 17.9779 57.6843 21.4265C57.6843 26.721 56.1934 31.5009 53.2533 35.6335C50.4478 39.5764 46.2401 43.0575 40.7363 45.9914Z" fill="#162D43"/>
<path d="M24.851 11.1894C22.2924 8.3501 19.2084 6.9104 15.6844 6.9104C12.5119 6.9104 9.83712 8.04112 7.73483 10.2711C5.65058 12.4817 4.59369 15.2266 4.59369 18.4296C4.59369 21.4594 5.67781 24.1593 7.81577 26.4545C9.69789 28.4749 12.0453 29.7616 14.8057 30.2889C14.3197 34.0209 11.0505 37.3979 5.06925 40.3396L4 40.8652L8.34088 49.0896L9.35577 48.5775C22.1647 42.1144 28.6594 32.9795 28.6594 21.4267C28.6593 17.4382 27.3778 13.9939 24.851 11.1894ZM9.32208 45.9876L7.15252 41.8768C13.811 38.361 17.1849 34.1352 17.1849 29.3045V28.2725L16.1597 28.1542C13.4487 27.8414 11.2734 26.7691 9.51009 24.8759C7.75998 22.9973 6.90937 20.8886 6.90937 18.4296C6.90937 15.8003 7.73056 13.6512 9.41964 11.8597C11.0903 10.0876 13.1397 9.22609 15.6844 9.22609C18.5644 9.22609 21.0003 10.3753 23.1306 12.7395C25.2926 15.1388 26.3436 17.9805 26.3436 21.4267C26.3436 26.7203 24.8462 31.4995 21.8928 35.6316C19.0752 39.5735 14.8493 43.054 9.32208 45.9876Z" fill="#162D43"/>
</svg>
